<?xml version="1.0" standalone="no"?>
<!DOCTYPE svg PUBLIC "-//W3C//DTD SVG 20010904//EN"
 "http://www.w3.org/TR/2001/REC-SVG-20010904/DTD/svg10.dtd">
<svg version="1.0" xmlns="http://www.w3.org/2000/svg"
 width="1248.000000pt" height="1046.000000pt" viewBox="0 0 1248.000000 1046.000000"
 preserveAspectRatio="xMidYMid meet">

<g transform="translate(0.000000,1046.000000) scale(0.100000,-0.100000)"
fill="#000000" stroke="none">
<path d="M3872 10437 c-47 -50 -174 -351 -261 -617 -86 -264 -144 -533 -171
-795 -25 -242 -22 -686 6 -850 4 -26 -7 -45 -92 -150 -215 -267 -423 -616
-534 -894 -212 -533 -278 -1031 -225 -1706 11 -136 15 -258 11 -319 -13 -197
-34 -257 -342 -988 -149 -352 -194 -520 -194 -720 0 -129 21 -231 65 -319 23
-44 25 -54 13 -63 -355 -268 -540 -432 -810 -716 -594 -624 -1033 -1380 -1263
-2173 -19 -65 -35 -121 -35 -123 0 -2 28 -4 63 -4 61 0 63 1 155 70 653 486
1480 760 2562 850 589 48 1319 39 2580 -35 1117 -64 1429 -76 2030 -76 733 1
1223 36 1807 131 1104 180 2065 574 2787 1143 117 92 443 417 451 450 3 12 5
55 3 95 l-3 72 -70 -92 c-87 -116 -327 -356 -463 -466 -358 -286 -840 -551
-1357 -744 -840 -314 -1619 -451 -2770 -489 -461 -16 -1166 2 -2015 51 -575
33 -1019 56 -1345 69 -1174 50 -2001 -4 -2691 -174 -251 -62 -480 -134 -664
-207 -281 -113 -623 -299 -844 -459 -37 -28 -70 -49 -72 -46 -5 5 104 318 155
446 52 129 190 416 261 542 484 861 1197 1586 2078 2111 136 81 522 277 666
338 579 245 1188 410 1816 489 322 41 550 55 935 55 555 0 795 -24 1578 -155
436 -73 636 -102 877 -128 768 -84 1304 -30 1615 164 139 86 286 246 270 295
-8 24 -47 43 -70 34 -9 -4 -29 -26 -45 -49 -240 -349 -869 -456 -1900 -324
-189 24 -420 59 -905 139 -637 105 -911 130 -1415 130 -271 0 -380 -4 -660
-25 -75 -6 -75 -6 -40 10 19 9 186 67 370 130 928 314 1381 527 1787 843 202
158 436 408 569 609 126 190 273 530 248 571 -13 20 -60 28 -79 12 -7 -6 -28
-55 -46 -108 -167 -486 -592 -945 -1195 -1290 -328 -187 -632 -317 -1059 -452
-204 -64 -799 -275 -986 -349 -73 -29 -164 -54 -304 -82 -496 -100 -870 -211
-1313 -390 -139 -57 -552 -257 -647 -315 -33 -20 -103 -61 -155 -92 -52 -30
-151 -91 -219 -136 -140 -91 -133 -91 -171 11 -48 129 -50 277 -5 461 32 131
73 242 200 532 326 748 335 788 295 1339 -21 282 -22 334 -12 525 16 311 66
576 168 885 116 353 340 742 621 1077 l93 111 -15 148 c-23 227 -21 622 4 821
45 356 115 620 265 1002 68 175 128 280 164 289 61 15 244 -125 551 -421 l105
-101 -110 -6 c-109 -7 -222 -34 -270 -66 -13 -8 -26 -14 -29 -13 -14 4 -177
-96 -221 -136 -27 -24 -52 -44 -55 -44 -4 0 -9 -7 -13 -15 -4 -12 -2 -13 16
-2 16 9 22 9 25 0 3 -7 9 -13 14 -13 6 0 7 5 3 12 -5 8 0 9 15 5 17 -4 21 -2
17 9 -4 10 -2 13 7 7 19 -12 37 -12 37 -1 0 6 8 1 19 -10 21 -25 44 -28 60 -8
9 11 9 15 -1 19 -7 3 3 5 22 6 25 0 30 -3 17 -8 -18 -6 -18 -8 -2 -21 14 -11
20 -11 37 -1 11 7 17 8 13 2 -9 -15 10 -14 36 2 17 10 23 10 26 0 3 -7 9 -13
14 -13 6 0 7 5 3 12 -5 8 0 9 15 5 17 -4 21 -2 17 9 -4 10 -2 13 7 7 19 -12
37 -12 37 -1 0 6 8 1 19 -10 21 -25 44 -28 60 -8 9 11 9 15 -1 19 -7 3 3 5 22
6 25 0 30 -3 17 -8 -18 -6 -18 -8 -2 -21 14 -11 20 -11 37 -1 11 7 17 8 13 2
-9 -15 10 -14 36 2 17 10 23 10 26 0 3 -7 9 -13 14 -13 6 0 7 5 3 12 -5 8 0 9
15 5 17 -4 21 -2 17 9 -4 10 -2 13 7 7 19 -12 37 -12 37 -1 0 6 8 1 19 -10 21
-25 44 -28 60 -8 9 11 9 15 -1 19 -7 3 -3 6 10 6 13 1 21 -3 18 -8 -8 -12 21
-34 36 -28 7 3 4 6 -7 6 -17 1 -17 3 -5 11 8 5 10 10 4 10 -7 0 -15 8 -18 18
-3 9 14 -5 39 -33 25 -27 43 -56 40 -63 -3 -7 -1 -10 4 -7 11 6 97 -130 180
-286 62 -118 118 -251 178 -424 19 -55 45 -119 58 -141 39 -67 65 -74 268 -74
218 0 409 -21 563 -61 154 -40 223 -42 296 -6 54 27 85 56 268 257 154 169
374 343 625 493 259 155 437 228 732 302 165 41 728 145 785 145 49 0 82 -30
99 -91 19 -63 16 -334 -5 -509 -86 -722 -189 -1016 -489 -1390 -33 -41 -138
-152 -234 -247 -104 -103 -173 -179 -173 -191 0 -22 30 -52 52 -52 8 0 57 23
109 51 448 248 1147 386 1849 365 415 -12 707 -72 1045 -216 471 -200 1005
-572 1297 -903 l68 -77 0 73 0 72 -127 127 c-467 461 -1106 829 -1660 953
-240 54 -388 68 -748 69 -348 1 -448 -6 -724 -50 -259 -41 -518 -107 -728
-185 -58 -21 -108 -37 -111 -34 -3 2 24 35 59 72 288 307 450 622 533 1038 65
325 99 641 94 865 -3 146 -8 184 -25 232 -30 82 -56 114 -109 134 -45 17 -46
17 -262 -25 -119 -23 -298 -58 -397 -77 -437 -84 -733 -197 -1052 -400 -245
-157 -513 -381 -627 -525 -169 -212 -205 -226 -426 -170 -167 43 -307 61 -529
68 -138 4 -202 9 -218 19 -14 9 -31 42 -48 96 -75 225 -186 471 -297 656 -43
72 -48 85 -36 100 11 15 11 16 -3 4 -14 -10 -19 -8 -34 15 -17 26 -17 27 -1
14 13 -11 19 -12 25 -3 5 8 11 5 21 -8 17 -23 43 -26 59 -6 9 11 9 15 -1 19
-7 3 3 5 22 5 19 0 27 -2 17 -5 -14 -4 -16 -8 -6 -19 6 -8 19 -14 28 -14 9 0
22 -5 29 -12 7 -7 12 -9 12 -5 0 34 -206 198 -267 213 -12 4 -23 11 -23 17 0
6 -3 8 -6 4 -4 -3 -19 0 -34 8 -15 8 -30 12 -33 8 -3 -3 -73 63 -154 147 -181
187 -445 417 -565 494 -55 34 -61 36 -146 36 -79 0 -91 -2 -110 -23z m905
-762 c46 -62 30 -45 -60 60 -31 36 -38 48 -18 30 18 -16 53 -57 78 -90z m185
-40 l30 -40 -32 35 c-17 19 -45 53 -62 75 l-30 40 32 -35 c17 -19 45 -53 62
-75z m-719 -52 c-7 -2 -19 -2 -25 0 -7 3 -2 5 12 5 14 0 19 -2 13 -5z m44 1
c-3 -3 -12 -4 -19 -1 -8 3 -5 6 6 6 11 1 17 -2 13 -5z m276 -1 c-7 -2 -19 -2
-25 0 -7 3 -2 5 12 5 14 0 19 -2 13 -5z m44 1 c-3 -3 -12 -4 -19 -1 -8 3 -5 6
6 6 11 1 17 -2 13 -5z m-470 -20 c-3 -3 -12 -4 -19 -1 -8 3 -5 6 6 6 11 1 17
-2 13 -5z m80 0 c-3 -3 -12 -4 -19 -1 -8 3 -5 6 6 6 11 1 17 -2 13 -5z m240 0
c-3 -3 -12 -4 -19 -1 -8 3 -5 6 6 6 11 1 17 -2 13 -5z m80 0 c-3 -3 -12 -4
-19 -1 -8 3 -5 6 6 6 11 1 17 -2 13 -5z m240 0 c-3 -3 -12 -4 -19 -1 -8 3 -5
6 6 6 11 1 17 -2 13 -5z m320 0 c-3 -3 -12 -4 -19 -1 -8 3 -5 6 6 6 11 1 17
-2 13 -5z m80 0 c-3 -3 -12 -4 -19 -1 -8 3 -5 6 6 6 11 1 17 -2 13 -5z"/>
<path d="M8164 9015 c-438 -146 -799 -499 -938 -915 -19 -58 -40 -136 -47
-174 -11 -64 -10 -69 9 -88 l20 -21 205 37 c112 20 206 36 209 36 5 0 -20
-153 -42 -257 -16 -72 -6 -93 41 -93 49 0 63 42 104 302 20 127 19 135 -8 153
-21 14 -40 12 -221 -21 -108 -20 -200 -34 -203 -30 -12 11 50 182 108 295 32
64 87 152 123 196 86 108 225 240 316 300 102 68 263 148 356 176 88 27 114
52 93 91 -23 45 -29 45 -125 13z"/>
<path d="M5775 6434 c-278 -49 -499 -119 -657 -207 -158 -88 -331 -241 -451
-400 -62 -80 -67 -106 -26 -128 31 -16 54 -3 99 57 103 136 269 287 399 363
178 104 427 181 736 227 138 20 147 25 143 72 -3 37 -3 37 -53 39 -27 1 -113
-9 -190 -23z"/>
<path d="M2405 2708 c-262 -307 -358 -452 -385 -581 -10 -51 -9 -62 7 -95 30
-61 73 -76 228 -76 112 -1 135 -4 165 -21 68 -40 72 -116 14 -267 -18 -48 -37
-110 -42 -138 -19 -106 21 -195 107 -233 58 -26 194 -34 266 -15 45 12 50 16
53 44 5 49 -17 60 -92 46 -135 -25 -203 -6 -232 64 -20 47 -12 91 37 222 30
79 39 116 39 165 -1 158 -105 236 -298 223 -58 -4 -99 -2 -122 7 -34 12 -35
14 -35 64 1 44 7 61 49 125 61 92 150 206 256 328 45 52 93 112 107 132 24 36
25 39 9 63 -29 44 -55 33 -131 -57z"/>
</g>
</svg>
